HIERARCHY
ROOT Hips
{
	OFFSET 52.668098 -54.392117 96.645889
	CHANNELS 6 Xposition Yposition Zposition Xrotation Yrotation Zrotation
	JOINT spine
	{
		OFFSET 0.000000 -0.467659 8.132492
		CHANNELS 3 Xrotation Yrotation Zrotation
		JOINT spine1
		{
			OFFSET 0.000000 -0.000004 10.349800
			CHANNELS 3 Xrotation Yrotation Zrotation
			JOINT spine2
			{
				OFFSET 0.000000 0.000000 9.916992
				CHANNELS 3 Xrotation Yrotation Zrotation
				JOINT Neck
				{
					OFFSET 0.000000 -1.213905 25.460991
					CHANNELS 3 Xrotation Yrotation Zrotation
					JOINT Head
					{
						OFFSET 0.000000 -0.000004 7.692444
						CHANNELS 3 Xrotation Yrotation Zrotation
						End Site
						{
							OFFSET 0.000000 6.140625 18.619995
						}
					}
				}
				JOINT RightShoulder
				{
					OFFSET -4.175751 0.581440 10.709587
					CHANNELS 3 Xrotation Yrotation Zrotation
					JOINT RightArm
					{
						OFFSET 0.000000 0.000000 14.046600
						CHANNELS 3 Xrotation Yrotation Zrotation
						JOINT RightArmRoll
						{
							OFFSET 0.000000 -0.000004 7.090973
							CHANNELS 3 Xrotation Yrotation Zrotation
							JOINT RightForeArm
							{
								OFFSET 0.000000 -0.000004 20.653503
								CHANNELS 3 Xrotation Yrotation Zrotation
								JOINT RightForeArmRoll
								{
									OFFSET 0.000000 0.000000 7.957184
									CHANNELS 3 Xrotation Yrotation Zrotation
									JOINT RightHand
									{
										OFFSET 0.000000 -0.000004 15.968307
										CHANNELS 3 Xrotation Yrotation Zrotation
										End Site
										{
											OFFSET 0.000000 0.000000 0.100006
										}
									}
								}
							}
						}
					}
				}
				JOINT LeftShoulder
				{
					OFFSET 4.175751 0.581440 10.709587
					CHANNELS 3 Xrotation Yrotation Zrotation
					JOINT LeftArm
					{
						OFFSET 0.000000 0.000000 14.046600
						CHANNELS 3 Xrotation Yrotation Zrotation
						JOINT LeftArmRoll
						{
							OFFSET 0.000000 -0.000004 7.090973
							CHANNELS 3 Xrotation Yrotation Zrotation
							JOINT LeftForeArm
							{
								OFFSET 0.000000 -0.000004 20.653503
								CHANNELS 3 Xrotation Yrotation Zrotation
								JOINT LeftForeArmRoll
								{
									OFFSET 0.000000 0.000000 7.957184
									CHANNELS 3 Xrotation Yrotation Zrotation
									JOINT LeftHand
									{
										OFFSET 0.000000 -0.000004 15.968307
										CHANNELS 3 Xrotation Yrotation Zrotation
										End Site
										{
											OFFSET 0.000000 0.000000 0.100006
										}
									}
								}
							}
						}
					}
				}
			}
		}
	}
	JOINT RightUpLeg
	{
		OFFSET -7.208340 1.108841 -1.321823
		CHANNELS 3 Xrotation Yrotation Zrotation
		JOINT RightUpLegRoll
		{
			OFFSET 0.000000 -0.000004 18.723801
			CHANNELS 3 Xrotation Yrotation Zrotation
			JOINT RightLeg
			{
				OFFSET 0.000000 0.000004 -23.186600
				CHANNELS 3 Xrotation Yrotation Zrotation
				JOINT RightLegRoll
				{
					OFFSET 0.000000 -0.000004 23.262398
					CHANNELS 3 Xrotation Yrotation Zrotation
					JOINT RightFoot
					{
						OFFSET 0.000000 -0.000004 19.362099
						CHANNELS 3 Xrotation Yrotation Zrotation
						JOINT RightToeBase
						{
							OFFSET 0.000000 0.000000 16.185699
							CHANNELS 3 Xrotation Yrotation Zrotation
							End Site
							{
								OFFSET 0.006859 0.903519 7.838623
							}
						}
					}
				}
			}
		}
	}
	JOINT LeftUpLeg
	{
		OFFSET 7.208340 1.108841 -1.321823
		CHANNELS 3 Xrotation Yrotation Zrotation
		JOINT LeftUpLegRoll
		{
			OFFSET 0.000000 -0.000004 18.723900
			CHANNELS 3 Xrotation Yrotation Zrotation
			JOINT LeftLeg
			{
				OFFSET 0.000000 -0.000004 23.186485
				CHANNELS 3 Xrotation Yrotation Zrotation
				JOINT LeftLegRoll
				{
					OFFSET 0.000000 -0.000004 23.477509
					CHANNELS 3 Xrotation Yrotation Zrotation
					JOINT LeftFoot
					{
						OFFSET 0.000000 -0.000004 19.147003
						CHANNELS 3 Xrotation Yrotation Zrotation
						JOINT LeftToeBase
						{
							OFFSET 0.000000 0.000000 16.185699
							CHANNELS 3 Xrotation Yrotation Zrotation
							End Site
							{
								OFFSET -0.030746 0.903519 7.838623
							}
						}
					}
				}
			}
		}
	}
}
MOTION
Frames: 8
Frame Time: 0.041667
54.408504 -14.871708 58.089798 -9.146106 2.839761 4.076524 1.475469 -0.839816 -0.891668 6.941474 -1.722896 -1.752174 8.586577 -1.743766 -1.731421 -3.417472 -0.154256 -3.495811 3.811743 -1.928258 -3.265192 -20.613431 -57.728253 -24.386477 -50.677562 -136.901457 -62.269271 0.000003 0.000007 -0.000007 39.197230 -15.059245 4.139715 -0.000006 0.000005 -2.999991 -4.999695 -7.998759 -0.000032 -19.644452 59.209872 23.221677 -52.903100 136.408221 67.128663 0.000001 -0.000000 0.000010 32.034526 10.142197 -2.841923 -0.000004 0.000002 3.000010 -5.000218 7.998791 -0.000160 -75.379313 -164.249070 6.400336 179.999991 0.000004 -1.015999 97.238692 -1.799717 -4.861153 0.000000 0.000001 1.828840 67.930473 8.066032 -0.758338 25.456959 -7.355616 -0.000003 -77.518959 170.703339 -2.949798 -0.000020 -0.000004 -1.547010 -81.377428 -1.681622 1.232185 0.000009 -0.000003 -2.228529 63.300984 -8.925047 2.104011 25.456957 7.355622 -0.000003 
54.412704 -14.871212 58.091896 -9.147125 2.839615 4.075271 1.476118 -0.840507 -0.891449 6.942787 -1.723387 -1.751724 8.587881 -1.744244 -1.730958 -3.413053 -0.148944 -3.496563 3.809576 -1.925938 -3.267320 -20.611279 -57.722325 -24.383973 -50.673225 -136.906347 -62.263861 0.000003 0.000007 -0.000006 39.199371 -15.056459 4.138611 -0.000004 0.000008 -2.999988 -4.999694 -7.998762 -0.000032 -19.649397 59.212296 23.227510 -52.910498 136.411992 67.129544 0.000001 0.000001 0.000009 32.021720 10.143756 -2.840653 -0.000004 0.000002 3.000011 -5.000228 7.998794 -0.000161 -75.379907 -164.250176 6.399520 179.999991 0.000004 -1.015999 97.237694 -1.799196 -4.861206 -0.000000 0.000001 1.828840 67.933669 8.065700 -0.757938 25.456957 -7.355615 -0.000003 -77.518214 170.701809 -2.950640 -0.000020 -0.000004 -1.547019 -81.378043 -1.681612 1.232175 0.000009 -0.000003 -2.228529 63.298252 -8.925437 2.104495 25.456957 7.355623 -0.000002 
54.417305 -14.884510 58.099991 -9.148427 2.839497 4.074189 1.476821 -0.841255 -0.891248 6.944188 -1.723919 -1.751296 8.589284 -1.744772 -1.730535 -3.408821 -0.143785 -3.497374 3.807325 -1.923319 -3.269510 -20.609305 -57.716376 -24.381713 -50.668382 -136.911989 -62.257639 0.000005 0.000006 -0.000006 39.201307 -15.053715 4.137546 -0.000004 0.000006 -2.999992 -4.999695 -7.998763 -0.000034 -19.654341 59.214817 23.233355 -52.918940 136.415366 67.131518 -0.000000 -0.000000 0.000008 32.008302 10.145300 -2.839259 -0.000005 0.000001 3.000008 -5.000222 7.998791 -0.000161 -75.380140 -164.250941 6.398485 179.999991 0.000005 -1.015999 97.236745 -1.798827 -4.861244 0.000000 0.000001 1.828840 67.936989 8.065403 -0.757638 25.456957 -7.355613 -0.000003 -77.517060 170.700306 -2.951290 -0.000020 -0.000004 -1.547029 -81.378555 -1.681638 1.232068 0.000009 -0.000003 -2.228530 63.295425 -8.925906 2.105051 25.456955 7.355621 -0.000003 
54.411705 -14.881607 58.094799 -9.149896 2.839396 4.073207 1.477551 -0.842042 -0.891058 6.945650 -1.724469 -1.750894 8.590757 -1.745328 -1.730124 -3.404719 -0.138731 -3.498233 3.805040 -1.920480 -3.271757 -20.607514 -57.710392 -24.379648 -50.663652 -136.917713 -62.251676 0.000003 0.000007 -0.000007 39.203025 -15.050935 4.136421 -0.000005 0.000006 -2.999990 -4.999699 -7.998765 -0.000033 -19.659246 59.217337 23.239133 -52.926852 136.419478 67.132440 -0.000001 -0.000000 0.000009 31.994379 10.146980 -2.837854 -0.000004 0.000001 3.000009 -5.000224 7.998792 -0.000162 -75.379955 -164.251802 6.398391 179.999991 0.000004 -1.015999 97.235707 -1.798438 -4.860286 0.000000 0.000001 1.828840 67.940513 8.065080 -0.757358 25.456953 -7.355614 -0.000002 -77.515667 170.698981 -2.952352 -0.000020 -0.000004 -1.547041 -81.379068 -1.681676 1.231965 0.000009 -0.000004 -2.228530 63.292515 -8.926398 2.105691 25.456957 7.355625 -0.000001 
54.407703 -14.870014 58.090988 -9.151478 2.839304 4.072303 1.478308 -0.842850 -0.890878 6.947165 -1.725049 -1.750518 8.592258 -1.745895 -1.729732 -3.400700 -0.133739 -3.499108 3.802723 -1.917532 -3.274032 -20.605724 -57.704416 -24.377621 -50.659134 -136.923546 -62.245877 0.000005 0.000006 -0.000006 39.204647 -15.048170 4.135309 -0.000004 0.000008 -2.999989 -4.999695 -7.998763 -0.000032 -19.664193 59.219967 23.244973 -52.935605 136.423070 67.134346 0.000002 0.000001 0.000009 31.980264 10.148678 -2.836431 -0.000007 0.000002 3.000009 -5.000217 7.998794 -0.000160 -75.379819 -164.252212 6.397154 179.999991 0.000004 -1.015999 97.234771 -1.798077 -4.860325 -0.000000 0.000001 1.828841 67.943935 8.064789 -0.757068 25.456957 -7.355614 -0.000002 -77.514184 170.697574 -2.952933 -0.000019 -0.000003 -1.547050 -81.379587 -1.681717 1.231859 0.000009 -0.000003 -2.228530 63.289598 -8.926898 2.106333 25.456957 7.355623 -0.000001 
54.409203 -14.872913 58.088589 -9.153089 2.839223 4.071401 1.479073 -0.843665 -0.890698 6.948676 -1.725619 -1.750132 8.593773 -1.746471 -1.729348 -3.396708 -0.128763 -3.499992 3.800410 -1.914543 -3.276306 -20.604060 -57.698310 -24.375675 -50.654507 -136.929310 -62.239996 0.000001 0.000007 -0.000006 39.206276 -15.045489 4.134264 -0.000004 0.000007 -2.999989 -4.999693 -7.998761 -0.000034 -19.669143 59.222590 23.250806 -52.943610 136.427250 67.135138 0.000000 0.000001 0.000009 31.966129 10.150296 -2.834965 -0.000006 0.000002 3.000008 -5.000221 7.998792 -0.000164 -75.379416 -164.252840 6.396936 179.999991 0.000005 -1.015999 97.233829 -1.797710 -4.860348 0.000000 0.000001 1.828840 67.947555 8.064469 -0.756892 25.456955 -7.355615 -0.000003 -77.512627 170.696126 -2.953422 -0.000020 -0.000005 -1.547060 -81.380099 -1.681756 1.231855 0.000008 -0.000003 -2.228531 63.286668 -8.927344 2.106883 25.456955 7.355620 -0.000001 
54.414303 -14.881416 58.086689 -9.154643 2.839130 4.070476 1.479822 -0.844468 -0.890513 6.950170 -1.726189 -1.749747 8.595278 -1.747038 -1.728946 -3.392667 -0.123756 -3.500866 3.798089 -1.911615 -3.278567 -20.602265 -57.692320 -24.373643 -50.649879 -136.935089 -62.234116 0.000003 0.000006 -0.000007 39.207898 -15.042735 4.133132 -0.000006 0.000006 -2.999989 -4.999697 -7.998759 -0.000033 -19.674034 59.225117 23.256574 -52.951605 136.431430 67.136026 0.000003 0.000001 0.000009 31.952120 10.151984 -2.833559 -0.000007 0.000001 3.000009 -5.000222 7.998790 -0.000161 -75.379088 -164.253578 6.396778 179.999991 0.000003 -1.015999 97.232886 -1.797343 -4.859388 0.000000 0.000001 1.828840 67.950984 8.064179 -0.756502 25.456953 -7.355619 -0.000000 -77.511152 170.694733 -2.954087 -0.000020 -0.000004 -1.547070 -81.380522 -1.681829 1.231654 0.000009 -0.000003 -2.228529 63.283745 -8.927837 2.107425 25.456955 7.355620 -0.000001 
54.414303 -14.880211 58.089607 -9.156073 2.839031 4.069473 1.480543 -0.845243 -0.890322 6.951622 -1.726740 -1.749335 8.596719 -1.747585 -1.728538 -3.388536 -0.118673 -3.501706 3.795821 -1.908836 -3.280800 -20.600479 -57.686343 -24.371570 -50.645156 -136.940799 -62.228078 0.000004 0.000006 -0.000006 39.209719 -15.039933 4.132024 -0.000004 0.000007 -2.999989 -4.999695 -7.998760 -0.000032 -19.679018 59.227726 23.262453 -52.960259 136.434941 67.138034 -0.000001 -0.000000 0.000009 31.938398 10.153641 -2.832174 -0.000006 0.000002 3.000009 -5.000222 7.998794 -0.000163 -75.379177 -164.254179 6.395687 179.999991 0.000004 -1.015999 97.231855 -1.796951 -4.859442 0.000000 0.000001 1.828839 67.954413 8.063885 -0.756311 25.456957 -7.355616 -0.000003 -77.509759 170.693394 -2.955353 -0.000020 -0.000004 -1.547090 -81.381137 -1.681837 1.231546 0.000009 -0.000003 -2.228530 63.280835 -8.928334 2.108066 25.456959 7.355620 -0.000001 
